<?xml version="1.0" encoding="UTF-8"?>
<svg xmlns="http://www.w3.org/2000/svg" xmlns:xlink="http://www.w3.org/1999/xlink" width="256px" height="256px" viewBox="0 0 256 193" version="1.1">
<g id="surface1">
<path style=" stroke:none;fill-rule:nonzero;fill:rgb(0%,0%,0%);fill-opacity:1;" d="M 240.101562 0.300781 C 235.640625 1.019531 232.039062 2.816406 228.980469 5.851562 C 226.160156 8.648438 223.859375 12.421875 222.980469 15.695312 C 222.621094 16.996094 222.539062 17.835938 222.539062 20.371094 C 222.519531 23.925781 222.921875 26.121094 224.5 31.613281 C 225.558594 35.289062 226.480469 38.921875 226.820312 40.742188 C 227.179688 42.679688 227.140625 46.953125 226.738281 48.570312 C 225.960938 51.746094 224.21875 54.699219 221.519531 57.417969 C 218.898438 60.054688 217.078125 61.152344 210.699219 64.046875 C 204.058594 67.042969 201.160156 68.800781 193.519531 74.472656 C 188.980469 77.847656 187.5 78.84375 185.5 79.824219 C 180.078125 82.519531 176.039062 82.78125 160.199219 81.460938 C 143.160156 80.042969 127.578125 81.5 108.179688 86.375 C 100.621094 88.273438 98.921875 88.351562 90.699219 87.152344 C 87.820312 86.734375 86.121094 86.59375 83.699219 86.59375 C 79.941406 86.574219 78.941406 86.792969 73.398438 88.769531 C 67.71875 90.808594 66.898438 90.96875 62.800781 90.949219 C 60.578125 90.929688 58 90.769531 55.699219 90.488281 C 49.179688 89.710938 46.738281 89.46875 43 89.289062 C 40.960938 89.171875 38.660156 88.949219 37.898438 88.792969 C 33.679688 87.890625 29.621094 85.714844 26.921875 82.859375 C 26.179688 82.101562 25.519531 81.480469 25.421875 81.480469 C 25.21875 81.480469 24.71875 82.039062 24.398438 82.660156 C 23.839844 83.757812 24.28125 85.914062 25.421875 87.511719 C 25.699219 87.890625 25.761719 88.09375 25.578125 88.011719 C 25.421875 87.953125 24.539062 87.652344 23.601562 87.351562 C 21.441406 86.675781 20.878906 86.394531 19.921875 85.496094 L 19.160156 84.777344 L 19.261719 85.976562 C 19.339844 86.855469 19.621094 87.691406 20.300781 89.109375 C 22.101562 92.804688 21.839844 93.625 17.660156 97.777344 C 13.578125 101.832031 12.761719 103.429688 12.398438 108.023438 C 12.199219 110.597656 12.121094 111 11.28125 113.734375 C 11 114.613281 10.699219 115.890625 10.621094 116.589844 L 10.480469 117.847656 L 12.078125 119.386719 C 14.601562 121.804688 16.578125 123 18.839844 123.5 C 20.820312 123.941406 31.878906 124.101562 33.699219 123.71875 C 36.601562 123.101562 39.058594 123.480469 42.378906 125.039062 L 44.058594 125.816406 L 43.941406 127.296875 C 43.78125 129.152344 43.019531 132.726562 42.078125 136.003906 C 41.460938 138.160156 41.339844 138.957031 41.179688 141.792969 C 40.921875 146.347656 40.539062 147.527344 38.058594 151.28125 C 35.140625 155.675781 32.300781 158.75 23.121094 167.417969 C 19.140625 171.152344 14.78125 175.304688 13.398438 176.644531 C 9.898438 180.039062 8.960938 180.636719 5.601562 181.515625 C 3 182.214844 1.28125 183.394531 0.398438 185.132812 C -0.378906 186.648438 -0.0390625 187.707031 1.78125 189.523438 C 5.019531 192.761719 9.039062 193.179688 14.140625 190.824219 C 17.078125 189.464844 20.359375 187.070312 25.261719 182.695312 C 32.660156 176.066406 33.359375 175.546875 39.101562 172.449219 C 45.980469 168.734375 47.199219 167.894531 52.398438 163.242188 C 60.699219 155.832031 62.941406 154.574219 70.300781 153.296875 C 74.398438 152.597656 75.921875 152.140625 78.480469 150.859375 C 81.019531 149.601562 81.261719 149.582031 84.441406 150.261719 C 87.421875 150.902344 88.921875 151.480469 92.179688 153.296875 C 95.5 155.136719 96.238281 155.734375 97.78125 157.769531 C 100.640625 161.546875 102.761719 166.578125 105.800781 176.742188 C 107.339844 181.796875 107.421875 182.234375 107.101562 182.433594 C 103.640625 184.472656 101.699219 186.109375 101.199219 187.40625 C 100.441406 189.425781 101.660156 191.863281 103.78125 192.621094 C 105.039062 193.058594 106.378906 193 109.898438 192.320312 C 111.621094 191.980469 113.179688 191.722656 113.339844 191.722656 C 113.820312 191.722656 115.960938 190.324219 116.640625 189.546875 C 118.019531 187.988281 118.761719 185.492188 118.941406 181.9375 C 119.160156 177.222656 118.359375 172.25 116.398438 165.960938 C 114.261719 159.167969 113.621094 156.113281 113.460938 152.078125 C 113.378906 150.003906 113.441406 148.765625 113.679688 147.285156 C 113.859375 146.207031 114.039062 145.269531 114.078125 145.25 C 114.121094 145.210938 115.179688 145.347656 116.421875 145.570312 C 119.261719 146.066406 121.820312 146.308594 128.800781 146.6875 C 135.339844 147.066406 136.980469 147.265625 144.199219 148.683594 C 149.941406 149.800781 151.621094 150.042969 155.859375 150.382812 C 161.539062 150.859375 164.238281 152.238281 169.898438 157.589844 C 171.339844 158.949219 173.839844 161.285156 175.480469 162.765625 C 178.398438 165.398438 180.339844 167.476562 181.339844 168.976562 C 181.980469 169.953125 181.980469 170.953125 181.339844 171.910156 C 180.578125 173.070312 177.378906 176.246094 174.398438 178.78125 C 172.921875 180.039062 171.519531 181.277344 171.300781 181.535156 C 170.480469 182.433594 169.921875 182.574219 167.699219 182.433594 C 165.761719 182.296875 165.558594 182.316406 164.539062 182.792969 C 161.78125 184.054688 160.019531 187.347656 160.878906 189.625 C 161.519531 191.28125 162.71875 191.960938 165.421875 192.242188 C 167.480469 192.441406 175.441406 191.941406 177.179688 191.503906 C 182.058594 190.242188 188.320312 185.808594 194.261719 179.378906 C 196.398438 177.0625 200.121094 172.507812 201.71875 170.253906 C 202.699219 168.875 202.699219 168.855469 202.679688 167.355469 C 202.660156 165.378906 202.199219 164.222656 200.179688 161.167969 C 198.28125 158.269531 197.898438 157.371094 197.578125 155.136719 C 197.378906 153.738281 197.378906 153.117188 197.660156 151.160156 C 198.039062 148.625 198.519531 146.785156 198.820312 146.785156 C 198.921875 146.785156 200.378906 147.464844 202.058594 148.304688 C 205.878906 150.222656 206.101562 150.300781 212.898438 151.980469 C 224.679688 154.875 228.460938 156.273438 231.800781 158.890625 C 236.101562 162.246094 242.839844 174.246094 244.300781 181.097656 C 245.019531 184.414062 246.578125 185.890625 249.519531 186.089844 C 251.398438 186.210938 252.480469 185.832031 253.578125 184.632812 C 255.160156 182.914062 255.878906 180.859375 255.898438 177.980469 C 255.898438 176.105469 255.859375 175.886719 255.480469 175.585938 C 255.121094 175.304688 255.039062 174.964844 254.941406 173.449219 C 254.761719 170.394531 253.78125 167.894531 250.160156 161.425781 C 248.160156 157.832031 247.820312 157.070312 246.261719 152.578125 C 244.820312 148.425781 244.21875 147.066406 242.820312 144.710938 C 241.441406 142.433594 240.839844 141.15625 240.519531 139.9375 C 240.339844 139.199219 240.121094 138.839844 239.78125 138.660156 C 239.519531 138.519531 238.261719 137.917969 237 137.320312 C 230.621094 134.324219 224.5 128.933594 221.28125 123.480469 C 219.941406 121.242188 219.378906 119.667969 218.121094 114.832031 C 216.800781 109.800781 216.441406 108.664062 215.359375 105.886719 C 214.378906 103.429688 213.78125 102.453125 210.800781 98.65625 C 207.980469 95.0625 206.601562 93.105469 206.601562 92.644531 C 206.601562 92.445312 206.898438 91.566406 207.28125 90.6875 C 209.78125 84.796875 213.859375 80.105469 223.300781 72.253906 C 228.359375 68.082031 228.941406 67.523438 230.820312 65.324219 C 237.261719 57.777344 240.199219 50.046875 240.199219 40.679688 C 240.199219 36.425781 239.859375 33.851562 238.5 27.738281 C 236.941406 20.769531 237.359375 18.710938 241.261719 14.339844 C 246.820312 8.109375 248.640625 2.296875 245.621094 0.519531 C 244.738281 0 242.5 -0.078125 240.101562 0.300781 Z M 240.101562 0.300781 "/>
</g>
</svg>
