<?xml version="1.0" encoding="UTF-8"?>
<svg xmlns="http://www.w3.org/2000/svg" xmlns:xlink="http://www.w3.org/1999/xlink" width="949px" height="256px" viewBox="0 0 339 256" version="1.1">
<g id="surface1">
<path style=" stroke:none;fill-rule:nonzero;fill:rgb(0%,0%,0%);fill-opacity:1;" d="M 317.945312 0.398438 C 312.039062 1.351562 307.273438 3.734375 303.21875 7.761719 C 299.484375 11.46875 296.441406 16.476562 295.273438 20.820312 C 294.796875 22.542969 294.691406 23.65625 294.691406 27.019531 C 294.664062 31.734375 295.195312 34.648438 297.289062 41.933594 C 298.691406 46.808594 299.910156 51.628906 300.359375 54.039062 C 300.835938 56.609375 300.78125 62.277344 300.253906 64.425781 C 299.21875 68.636719 296.917969 72.554688 293.339844 76.160156 C 289.871094 79.65625 287.460938 81.113281 279.011719 84.953125 C 270.21875 88.925781 266.378906 91.257812 256.261719 98.78125 C 250.25 103.257812 248.289062 104.582031 245.640625 105.878906 C 238.464844 109.457031 233.117188 109.800781 212.140625 108.054688 C 189.574219 106.171875 168.945312 108.105469 143.253906 114.570312 C 133.242188 117.085938 130.992188 117.191406 120.105469 115.601562 C 116.292969 115.046875 114.042969 114.859375 110.835938 114.859375 C 105.859375 114.835938 104.535156 115.125 97.199219 117.75 C 89.675781 120.449219 88.589844 120.664062 83.160156 120.636719 C 80.222656 120.609375 76.804688 120.398438 73.757812 120.027344 C 65.125 118.992188 61.894531 118.675781 56.941406 118.4375 C 54.238281 118.277344 51.195312 117.988281 50.1875 117.773438 C 44.601562 116.582031 39.222656 113.695312 35.648438 109.90625 C 34.667969 108.902344 33.792969 108.078125 33.660156 108.078125 C 33.398438 108.078125 32.734375 108.820312 32.3125 109.640625 C 31.570312 111.097656 32.152344 113.960938 33.660156 116.078125 C 34.03125 116.582031 34.113281 116.847656 33.875 116.742188 C 33.660156 116.664062 32.496094 116.265625 31.25 115.867188 C 28.390625 114.96875 27.648438 114.597656 26.378906 113.402344 L 25.371094 112.449219 L 25.503906 114.039062 C 25.609375 115.207031 25.980469 116.316406 26.882812 118.199219 C 29.265625 123.097656 28.921875 124.183594 23.386719 129.695312 C 17.984375 135.074219 16.898438 137.191406 16.421875 143.285156 C 16.15625 146.703125 16.050781 147.230469 14.9375 150.859375 C 14.566406 152.027344 14.167969 153.722656 14.0625 154.648438 L 13.878906 156.316406 L 15.996094 158.359375 C 19.332031 161.5625 21.957031 163.152344 24.949219 163.816406 C 27.570312 164.398438 42.214844 164.609375 44.625 164.105469 C 48.464844 163.285156 51.722656 163.789062 56.121094 165.855469 L 58.34375 166.886719 L 58.1875 168.847656 C 57.972656 171.3125 56.96875 176.054688 55.722656 180.398438 C 54.902344 183.257812 54.742188 184.316406 54.53125 188.078125 C 54.1875 194.121094 53.683594 195.683594 50.398438 200.664062 C 46.53125 206.488281 42.773438 210.570312 30.617188 222.066406 C 25.34375 227.019531 19.570312 232.53125 17.746094 234.304688 C 13.109375 238.808594 11.863281 239.601562 7.414062 240.769531 C 3.972656 241.695312 1.695312 243.257812 0.53125 245.5625 C -0.503906 247.574219 -0.0546875 248.980469 2.355469 251.390625 C 6.648438 255.683594 11.972656 256.238281 18.722656 253.113281 C 22.617188 251.3125 26.960938 248.132812 33.449219 242.332031 C 43.25 233.535156 44.175781 232.847656 51.777344 228.742188 C 60.886719 223.816406 62.503906 222.703125 69.390625 216.53125 C 80.378906 206.703125 83.347656 205.03125 93.09375 203.335938 C 98.523438 202.410156 100.535156 201.800781 103.925781 200.105469 C 107.289062 198.4375 107.605469 198.410156 111.816406 199.3125 C 115.761719 200.160156 117.75 200.925781 122.066406 203.335938 C 126.460938 205.773438 127.441406 206.570312 129.480469 209.273438 C 133.269531 214.277344 136.078125 220.953125 140.101562 234.4375 C 142.140625 241.140625 142.246094 241.722656 141.824219 241.988281 C 137.242188 244.6875 134.671875 246.859375 134.011719 248.582031 C 133.003906 251.257812 134.621094 254.488281 137.425781 255.496094 C 139.097656 256.078125 140.871094 256 145.53125 255.097656 C 147.808594 254.648438 149.875 254.304688 150.085938 254.304688 C 150.722656 254.304688 153.554688 252.449219 154.457031 251.417969 C 156.285156 249.351562 157.265625 246.039062 157.503906 241.324219 C 157.792969 235.074219 156.734375 228.476562 154.140625 220.132812 C 151.304688 211.125 150.457031 207.074219 150.246094 201.722656 C 150.140625 198.96875 150.21875 197.324219 150.539062 195.363281 C 150.777344 193.933594 151.015625 192.6875 151.066406 192.664062 C 151.121094 192.609375 152.523438 192.792969 154.164062 193.085938 C 157.925781 193.75 161.316406 194.066406 170.558594 194.570312 C 179.21875 195.074219 181.390625 195.335938 190.953125 197.21875 C 198.554688 198.703125 200.777344 199.019531 206.394531 199.46875 C 213.914062 200.105469 217.488281 201.933594 224.984375 209.03125 C 226.890625 210.835938 230.203125 213.933594 232.375 215.894531 C 236.242188 219.390625 238.808594 222.144531 240.132812 224.132812 C 240.980469 225.429688 240.980469 226.753906 240.132812 228.027344 C 239.128906 229.5625 234.890625 233.773438 230.945312 237.140625 C 228.984375 238.808594 227.128906 240.449219 226.839844 240.792969 C 225.753906 241.988281 225.011719 242.171875 222.070312 241.988281 C 219.503906 241.800781 219.238281 241.828125 217.886719 242.464844 C 214.230469 244.132812 211.902344 248.503906 213.039062 251.523438 C 213.886719 253.722656 215.476562 254.621094 219.050781 254.992188 C 221.78125 255.257812 232.320312 254.597656 234.625 254.011719 C 241.085938 252.34375 249.375 246.464844 257.242188 237.933594 C 260.078125 234.859375 265.003906 228.820312 267.121094 225.828125 C 268.417969 224 268.417969 223.972656 268.394531 221.988281 C 268.367188 219.363281 267.757812 217.828125 265.082031 213.773438 C 262.566406 209.933594 262.0625 208.742188 261.640625 205.773438 C 261.375 203.921875 261.375 203.097656 261.746094 200.503906 C 262.25 197.140625 262.882812 194.703125 263.28125 194.703125 C 263.414062 194.703125 265.347656 195.601562 267.570312 196.714844 C 272.628906 199.257812 272.921875 199.363281 281.925781 201.589844 C 297.527344 205.429688 302.53125 207.285156 306.953125 210.753906 C 312.648438 215.207031 321.574219 231.125 323.507812 240.210938 C 324.460938 244.609375 326.527344 246.570312 330.417969 246.835938 C 332.910156 246.992188 334.339844 246.488281 335.796875 244.902344 C 337.886719 242.621094 338.839844 239.894531 338.867188 236.078125 C 338.867188 233.589844 338.816406 233.296875 338.3125 232.902344 C 337.835938 232.53125 337.730469 232.078125 337.597656 230.066406 C 337.359375 226.011719 336.058594 222.703125 331.265625 214.121094 C 328.617188 209.351562 328.167969 208.34375 326.101562 202.382812 C 324.195312 196.875 323.402344 195.074219 321.546875 191.945312 C 319.71875 188.925781 318.925781 187.230469 318.5 185.617188 C 318.261719 184.636719 317.972656 184.160156 317.519531 183.921875 C 317.175781 183.734375 315.507812 182.941406 313.839844 182.144531 C 305.390625 178.171875 297.289062 171.019531 293.023438 163.789062 C 291.25 160.820312 290.507812 158.726562 288.839844 152.316406 C 287.089844 145.640625 286.613281 144.132812 285.183594 140.449219 C 283.886719 137.191406 283.089844 135.894531 279.144531 130.859375 C 275.410156 126.09375 273.582031 123.496094 273.582031 122.886719 C 273.582031 122.621094 273.980469 121.457031 274.484375 120.292969 C 277.792969 112.476562 283.199219 106.25 295.699219 95.839844 C 302.398438 90.304688 303.167969 89.5625 305.65625 86.648438 C 314.183594 76.636719 318.078125 66.382812 318.078125 53.960938 C 318.078125 48.316406 317.628906 44.902344 315.828125 36.792969 C 313.761719 27.550781 314.316406 24.820312 319.480469 19.019531 C 326.84375 10.753906 329.253906 3.046875 325.253906 0.6875 C 324.089844 0 321.125 -0.105469 317.945312 0.398438 Z M 317.945312 0.398438 "/>
</g>
</svg>
